<?xml version="1.0" standalone="no"?><!DOCTYPE svg PUBLIC "-//W3C//DTD SVG 1.1//EN" "http://www.w3.org/Graphics/SVG/1.1/DTD/svg11.dtd"><svg class="icon" width="200px" height="200.00px" viewBox="0 0 1024 1024" version="1.1" xmlns="http://www.w3.org/2000/svg"><path fill="#d4237a" d="M844.830112 273.506839a35.713951 35.713951 0 0 0-49.319266 22.808909 45.317702 45.317702 0 0 0 14.305589 47.118406 51.01993 51.01993 0 0 0 10.003907 7.302853 173.967956 173.967956 0 0 1 15.606096 10.003907 186.772958 186.772958 0 0 1-15.806174 312.522079 51.01993 51.01993 0 0 0-10.003908 7.302853 45.417741 45.417741 0 0 0-14.305588 47.118406A35.81399 35.81399 0 0 0 844.830112 750.293083a266.80422 266.80422 0 0 0 0-477.086362zM548.414324 26.610395l-250.097694 218.685424H182.471378A160.062524 160.062524 0 0 0 31.812527 405.358343v222.787026a160.062524 160.062524 0 0 0 160.062524 150.658851h106.741696l250.097695 218.585385 6.402501 5.202032a106.741696 106.741696 0 0 0 170.066432-85.533411V98.538492a106.841735 106.841735 0 0 0-176.769051-71.928097z m96.937867 890.347792a26.710434 26.710434 0 0 1-44.217273 20.007815l-250.097694-218.585385a80.031262 80.031262 0 0 0-52.720594-20.007815H191.875051a80.031262 80.031262 0 0 1-80.031262-80.031262V405.358343a80.031262 80.031262 0 0 1 80.031262-80.031262h106.741696a80.031262 80.031262 0 0 0 52.720594-20.007816l250.097695-218.685424a26.610395 26.610395 0 0 1 44.217272 20.007816z" /></svg>